<?xml version="1.0" encoding="UTF-8"?>
<svg width="700pt" height="700pt" version="1.1" viewBox="0 0 700 700" xmlns="http://www.w3.org/2000/svg" xmlns:xlink="http://www.w3.org/1999/xlink">
 <defs>
  <symbol id="w" overflow="visible">
   <path d="m2.6875-0.15625c-0.14844 0.074219-0.29297 0.125-0.4375 0.15625-0.14844 0.039062-0.30469 0.0625-0.46875 0.0625-0.49219 0-0.875-0.13281-1.1562-0.40625-0.28125-0.28125-0.42188-0.64844-0.42188-1.1094 0-0.46875 0.14062-0.83594 0.42188-1.1094 0.28125-0.26953 0.66406-0.40625 1.1562-0.40625 0.16406 0 0.32031 0.023438 0.46875 0.0625 0.14453 0.03125 0.28906 0.085938 0.4375 0.15625v0.59375c-0.14844-0.09375-0.28906-0.16016-0.42188-0.20312-0.13672-0.039063-0.27734-0.0625-0.42188-0.0625-0.27344 0-0.48438 0.089844-0.64062 0.26562-0.14844 0.16797-0.21875 0.40234-0.21875 0.70312 0 0.30469 0.070313 0.54297 0.21875 0.71875 0.15625 0.16797 0.36719 0.25 0.64062 0.25 0.14453 0 0.28516-0.019531 0.42188-0.0625 0.13281-0.050781 0.27344-0.125 0.42188-0.21875z"/>
  </symbol>
  <symbol id="b" overflow="visible">
   <path d="m1.9688-1.5938c-0.0625-0.03125-0.125-0.050781-0.1875-0.0625-0.0625-0.007812-0.125-0.015625-0.1875-0.015625-0.17969 0-0.32031 0.058594-0.42188 0.17188-0.09375 0.11719-0.14062 0.27734-0.14062 0.48438v1.0156h-0.6875v-2.1875h0.6875v0.35938c0.09375-0.14453 0.19531-0.25 0.3125-0.3125 0.11328-0.0625 0.25391-0.09375 0.42188-0.09375h0.0625c0.03125 0 0.070313 0.007813 0.125 0.015625z"/>
  </symbol>
  <symbol id="a" overflow="visible">
   <path d="m2.5156-1.0938v0.1875h-1.625c0.007813 0.16797 0.066406 0.29297 0.17188 0.375 0.10156 0.085938 0.24219 0.125 0.42188 0.125 0.14453 0 0.29688-0.019531 0.45312-0.0625 0.15625-0.050781 0.31641-0.11719 0.48438-0.20312v0.53125c-0.16797 0.0625-0.33594 0.10938-0.5 0.14062-0.16797 0.039062-0.33594 0.0625-0.5 0.0625-0.39844 0-0.70312-0.097656-0.92188-0.29688-0.21875-0.20703-0.32812-0.49219-0.32812-0.85938 0-0.35156 0.10156-0.62891 0.3125-0.82812 0.21875-0.20703 0.51953-0.3125 0.90625-0.3125 0.34375 0 0.61328 0.10547 0.8125 0.3125 0.20703 0.19922 0.3125 0.47656 0.3125 0.82812zm-0.71875-0.23438c0-0.13281-0.042969-0.24219-0.125-0.32812-0.074219-0.082031-0.17188-0.125-0.29688-0.125-0.13672 0-0.24609 0.042969-0.32812 0.125-0.085937 0.074219-0.13672 0.18359-0.15625 0.32812z"/>
  </symbol>
  <symbol id="d" overflow="visible">
   <path d="m1.3125-0.98438c-0.14844 0-0.25781 0.027344-0.32812 0.078125-0.074219 0.042969-0.10938 0.11719-0.10938 0.21875 0 0.085938 0.03125 0.15234 0.09375 0.20312 0.0625 0.054687 0.14453 0.078125 0.25 0.078125 0.125 0 0.23438-0.046875 0.32812-0.14062s0.14062-0.21094 0.14062-0.35938v-0.078125zm1.0781-0.26562v1.25h-0.70312v-0.32812c-0.09375 0.13672-0.20312 0.23438-0.32812 0.29688-0.11719 0.0625-0.25781 0.09375-0.42188 0.09375-0.23047 0-0.41797-0.066406-0.5625-0.20312-0.13672-0.13281-0.20312-0.30469-0.20312-0.51562 0-0.25781 0.085937-0.44531 0.26562-0.5625 0.17578-0.125 0.45312-0.1875 0.82812-0.1875h0.42188v-0.046875c0-0.11328-0.046875-0.19531-0.14062-0.25-0.085937-0.050781-0.21875-0.078125-0.40625-0.078125-0.14844 0-0.28906 0.015625-0.42188 0.046875-0.125 0.03125-0.24609 0.078125-0.35938 0.14062v-0.53125c0.15625-0.039062 0.30469-0.066406 0.45312-0.078125 0.15625-0.019531 0.30469-0.03125 0.45312-0.03125 0.39453 0 0.67969 0.078125 0.85938 0.23438 0.17578 0.14844 0.26562 0.39844 0.26562 0.75z"/>
  </symbol>
  <symbol id="c" overflow="visible">
   <path d="m1.0938-2.8125v0.625h0.73438v0.5h-0.73438v0.92188c0 0.10547 0.019531 0.17969 0.0625 0.21875 0.039062 0.03125 0.125 0.046875 0.25 0.046875h0.35938v0.5h-0.60938c-0.27344 0-0.46484-0.054688-0.57812-0.17188-0.11719-0.11328-0.17188-0.3125-0.17188-0.59375v-0.92188h-0.35938v-0.5h0.35938v-0.625z"/>
  </symbol>
  <symbol id="l" overflow="visible">
   <path d="m1.8281-1.875v-1.1719h0.70312v3.0469h-0.70312v-0.3125c-0.09375 0.125-0.20312 0.21875-0.32812 0.28125-0.11719 0.0625-0.24609 0.09375-0.39062 0.09375-0.27344 0-0.49609-0.10938-0.67188-0.32812-0.16797-0.21875-0.25-0.49219-0.25-0.82812 0-0.33203 0.082031-0.60156 0.25-0.8125 0.17578-0.21875 0.39844-0.32812 0.67188-0.32812 0.14453 0 0.27344 0.03125 0.39062 0.09375 0.125 0.054687 0.23438 0.14062 0.32812 0.26562zm-0.46875 1.4219c0.15625 0 0.26953-0.050781 0.34375-0.15625 0.082031-0.11328 0.125-0.27344 0.125-0.48438 0-0.20703-0.042969-0.36328-0.125-0.46875-0.074219-0.11328-0.1875-0.17188-0.34375-0.17188-0.14844 0-0.26172 0.058594-0.34375 0.17188-0.074219 0.10547-0.10938 0.26172-0.10938 0.46875 0 0.21094 0.035156 0.37109 0.10938 0.48438 0.082031 0.10547 0.19531 0.15625 0.34375 0.15625z"/>
  </symbol>
  <symbol id="k" overflow="visible">
   <path d="m1.5-0.45312c0.14453 0 0.25781-0.050781 0.34375-0.15625 0.082031-0.11328 0.125-0.27344 0.125-0.48438 0-0.20703-0.042969-0.36328-0.125-0.46875-0.085938-0.11328-0.19922-0.17188-0.34375-0.17188-0.14844 0-0.26172 0.058594-0.34375 0.17188-0.085938 0.10547-0.125 0.26172-0.125 0.46875 0 0.21094 0.039062 0.37109 0.125 0.48438 0.082031 0.10547 0.19531 0.15625 0.34375 0.15625zm-0.46875-1.4219c0.10156-0.125 0.21094-0.21094 0.32812-0.26562 0.11328-0.0625 0.25-0.09375 0.40625-0.09375 0.26953 0 0.48828 0.10938 0.65625 0.32812 0.17578 0.21094 0.26562 0.48047 0.26562 0.8125 0 0.33594-0.089844 0.60938-0.26562 0.82812-0.16797 0.21875-0.38672 0.32812-0.65625 0.32812-0.15625 0-0.29297-0.03125-0.40625-0.09375-0.11719-0.0625-0.22656-0.15625-0.32812-0.28125v0.3125h-0.6875v-3.0469h0.6875z"/>
  </symbol>
  <symbol id="j" overflow="visible">
   <path d="m0.046875-2.1875h0.70312l0.59375 1.4844 0.5-1.4844h0.6875l-0.92188 2.3906c-0.085937 0.25-0.1875 0.42188-0.3125 0.51562s-0.28906 0.14062-0.48438 0.14062h-0.40625v-0.45312h0.21875c0.11328 0 0.19531-0.023438 0.25-0.0625 0.050781-0.03125 0.09375-0.10156 0.125-0.20312l0.03125-0.0625z"/>
  </symbol>
  <symbol id="g" overflow="visible">
   <path d="m0.375-2.9219h0.75v1.0625l1.0781-1.0625h0.875l-1.4062 1.3906 1.5469 1.5312h-0.9375l-1.1562-1.1562v1.1562h-0.75z"/>
  </symbol>
  <symbol id="v" overflow="visible">
   <path d="m0.34375-2.1875h0.6875v2.1875h-0.6875zm0-0.85938h0.6875v0.57812h-0.6875z"/>
  </symbol>
  <symbol id="f" overflow="visible">
   <path d="m2.5312-1.3281v1.3281h-0.70312v-1.0156c0-0.1875-0.007813-0.31641-0.015625-0.39062 0-0.070312-0.011719-0.125-0.03125-0.15625-0.03125-0.050781-0.074219-0.085938-0.125-0.10938-0.042969-0.03125-0.09375-0.046875-0.15625-0.046875-0.14844 0-0.26172 0.058594-0.34375 0.17188-0.085938 0.11719-0.125 0.27344-0.125 0.46875v1.0781h-0.6875v-2.1875h0.6875v0.3125c0.10156-0.125 0.21094-0.21094 0.32812-0.26562 0.125-0.0625 0.25781-0.09375 0.40625-0.09375 0.25 0 0.4375 0.078125 0.5625 0.23438 0.13281 0.14844 0.20312 0.37109 0.20312 0.67188z"/>
  </symbol>
  <symbol id="u" overflow="visible">
   <path d="m1.3125-0.98438c-0.14844 0-0.25781 0.027344-0.32812 0.078125-0.074219 0.042969-0.10938 0.11719-0.10938 0.21875 0 0.085938 0.03125 0.15234 0.09375 0.20312 0.0625 0.054687 0.14453 0.078125 0.25 0.078125 0.125 0 0.23438-0.046875 0.32812-0.14062s0.14062-0.21094 0.14062-0.35938v-0.078125zm1.0781-0.26562v1.25h-0.70312v-0.32812c-0.09375 0.13672-0.20312 0.23438-0.32812 0.29688-0.11719 0.0625-0.25781 0.09375-0.42188 0.09375-0.23047 0-0.41797-0.066406-0.5625-0.20312-0.13672-0.13281-0.20312-0.30469-0.20312-0.51562 0-0.25781 0.085937-0.44531 0.26562-0.5625 0.17578-0.125 0.45312-0.1875 0.82812-0.1875h0.42188v-0.046875c0-0.11328-0.046875-0.19531-0.14062-0.25-0.085937-0.050781-0.21875-0.078125-0.40625-0.078125-0.14844 0-0.28906 0.015625-0.42188 0.046875-0.125 0.03125-0.24609 0.078125-0.35938 0.14062v-0.53125c0.15625-0.039062 0.30469-0.066406 0.45312-0.078125 0.15625-0.019531 0.30469-0.03125 0.45312-0.03125 0.39453 0 0.67969 0.078125 0.85938 0.23438 0.17578 0.14844 0.26562 0.39844 0.26562 0.75zm-2-1.8438h0.45312v0.48438h-0.45312zm0.76562 0h0.45312v0.48438h-0.45312z"/>
  </symbol>
  <symbol id="t" overflow="visible">
   <path d="m0.34375-3.0469h0.6875v1.6562l0.8125-0.79688h0.8125l-1.0781 1 1.1562 1.1875h-0.84375l-0.85938-0.90625v0.90625h-0.6875z"/>
  </symbol>
  <symbol id="i" overflow="visible">
   <path d="m0.3125-0.85938v-1.3281h0.70312v0.21875 0.45312 0.34375c0 0.17969 0.003906 0.30859 0.015625 0.39062 0.007812 0.074219 0.023438 0.13281 0.046875 0.17188 0.019531 0.042969 0.050781 0.078125 0.09375 0.10938 0.050781 0.023438 0.10938 0.03125 0.17188 0.03125 0.14453 0 0.25781-0.054688 0.34375-0.17188 0.082031-0.11328 0.125-0.26953 0.125-0.46875v-1.0781h0.70312v2.1875h-0.70312v-0.3125c-0.10547 0.125-0.21875 0.21875-0.34375 0.28125-0.11719 0.0625-0.24219 0.09375-0.375 0.09375-0.26172 0-0.46094-0.078125-0.59375-0.23438-0.125-0.15625-0.1875-0.38281-0.1875-0.6875z"/>
  </symbol>
  <symbol id="h" overflow="visible">
   <path d="m0.34375-3.0469h0.6875v3.0469h-0.6875z"/>
  </symbol>
  <symbol id="s" overflow="visible">
   <path d="m1.7812-3.0469v0.46875h-0.39062c-0.10547 0-0.17969 0.023437-0.21875 0.0625-0.03125 0.03125-0.046875 0.089844-0.046875 0.17188v0.15625h0.59375v0.5h-0.59375v1.6875h-0.70312v-1.6875h-0.34375v-0.5h0.34375v-0.15625c0-0.23828 0.066406-0.41406 0.20312-0.53125 0.13281-0.11328 0.33594-0.17188 0.60938-0.17188z"/>
  </symbol>
  <symbol id="e" overflow="visible">
   <path d="m1.375-1.7344c-0.15625 0-0.27734 0.058594-0.35938 0.17188-0.074219 0.10547-0.10938 0.26172-0.10938 0.46875 0 0.21094 0.035156 0.37109 0.10938 0.48438 0.082031 0.11719 0.20312 0.17188 0.35938 0.17188s0.26953-0.054688 0.34375-0.17188c0.082031-0.11328 0.125-0.27344 0.125-0.48438 0-0.20703-0.042969-0.36328-0.125-0.46875-0.074219-0.11328-0.1875-0.17188-0.34375-0.17188zm0-0.5c0.375 0 0.66406 0.10547 0.875 0.3125 0.21875 0.19922 0.32812 0.47656 0.32812 0.82812 0 0.36719-0.10938 0.65234-0.32812 0.85938-0.21094 0.19922-0.5 0.29688-0.875 0.29688s-0.67188-0.097656-0.89062-0.29688c-0.21094-0.20703-0.3125-0.49219-0.3125-0.85938 0-0.35156 0.10156-0.62891 0.3125-0.82812 0.21875-0.20703 0.51562-0.3125 0.89062-0.3125z"/>
  </symbol>
  <symbol id="r" overflow="visible">
   <path d="m2.3594-1.8281c0.09375-0.13281 0.19531-0.23438 0.3125-0.29688 0.125-0.070312 0.25781-0.10938 0.40625-0.10938 0.25 0 0.44141 0.078125 0.57812 0.23438 0.13281 0.14844 0.20312 0.37109 0.20312 0.67188v1.3281h-0.70312v-1.1406-0.046875-0.078125c0-0.15625-0.027344-0.26953-0.078125-0.34375-0.042969-0.070313-0.11719-0.10938-0.21875-0.10938-0.125 0-0.22656 0.058594-0.29688 0.17188-0.074219 0.10547-0.11719 0.26172-0.125 0.46875v1.0781h-0.70312v-1.1406c0-0.23828-0.023437-0.39453-0.0625-0.46875-0.042969-0.070313-0.11719-0.10938-0.21875-0.10938-0.13672 0-0.24219 0.058594-0.3125 0.17188-0.074219 0.10547-0.10938 0.26172-0.10938 0.46875v1.0781h-0.70312v-2.1875h0.70312v0.3125c0.09375-0.11328 0.19141-0.20312 0.29688-0.26562 0.11328-0.0625 0.23828-0.09375 0.375-0.09375 0.14453 0 0.27344 0.039063 0.39062 0.10938 0.125 0.074219 0.21094 0.17188 0.26562 0.29688z"/>
  </symbol>
  <symbol id="q" overflow="visible">
   <path d="m2.5312-1.3281v1.3281h-0.70312v-1.0156c0-0.1875-0.007813-0.31641-0.015625-0.39062 0-0.070312-0.011719-0.125-0.03125-0.15625-0.03125-0.050781-0.074219-0.085938-0.125-0.10938-0.042969-0.03125-0.09375-0.046875-0.15625-0.046875-0.14844 0-0.26172 0.058594-0.34375 0.17188-0.085938 0.11719-0.125 0.27344-0.125 0.46875v1.0781h-0.6875v-3.0469h0.6875v1.1719c0.10156-0.125 0.21094-0.21094 0.32812-0.26562 0.125-0.0625 0.25781-0.09375 0.40625-0.09375 0.25 0 0.4375 0.078125 0.5625 0.23438 0.13281 0.14844 0.20312 0.37109 0.20312 0.67188z"/>
  </symbol>
  <symbol id="p" overflow="visible">
   <path d="m0.375-2.9219h0.82812l1.0625 2v-2h0.71875v2.9219h-0.84375l-1.0625-2v2h-0.70312z"/>
  </symbol>
  <symbol id="o" overflow="visible">
   <path d="m0.375-2.9219h1.2344c0.375 0 0.66016 0.085937 0.85938 0.25 0.19531 0.16797 0.29688 0.40234 0.29688 0.70312 0 0.3125-0.10156 0.55469-0.29688 0.71875-0.19922 0.15625-0.48438 0.23438-0.85938 0.23438h-0.48438v1.0156h-0.75zm0.75 0.54688v0.8125h0.40625c0.14453 0 0.25781-0.03125 0.34375-0.09375 0.082031-0.070312 0.125-0.17578 0.125-0.3125 0-0.125-0.042969-0.22266-0.125-0.29688-0.085938-0.070313-0.19922-0.10938-0.34375-0.10938z"/>
  </symbol>
  <symbol id="n" overflow="visible">
   <path d="m0.34375-2.1875h0.6875v2.1406c0 0.30078-0.074219 0.52344-0.21875 0.67188-0.13672 0.15625-0.33594 0.23438-0.59375 0.23438h-0.35938v-0.45312h0.125c0.13281 0 0.22656-0.03125 0.28125-0.09375 0.050781-0.0625 0.078125-0.18359 0.078125-0.35938zm0-0.85938h0.6875v0.57812h-0.6875z"/>
  </symbol>
  <symbol id="m" overflow="visible">
   <path d="m2.1094-2.125v0.57812c-0.09375-0.0625-0.19531-0.10938-0.29688-0.14062-0.09375-0.03125-0.19531-0.046875-0.29688-0.046875-0.1875 0-0.33984 0.058594-0.45312 0.17188-0.10547 0.10547-0.15625 0.26172-0.15625 0.46875 0 0.21094 0.050781 0.37109 0.15625 0.48438 0.11328 0.11719 0.26562 0.17188 0.45312 0.17188 0.11328 0 0.21875-0.015625 0.3125-0.046875 0.10156-0.039063 0.19531-0.09375 0.28125-0.15625v0.57812c-0.11719 0.042969-0.23047 0.070312-0.34375 0.09375-0.10547 0.019531-0.21484 0.03125-0.32812 0.03125-0.39844 0-0.71094-0.097656-0.9375-0.29688-0.21875-0.20703-0.32812-0.49219-0.32812-0.85938 0-0.36328 0.10938-0.64453 0.32812-0.84375 0.22656-0.19531 0.53906-0.29688 0.9375-0.29688 0.11328 0 0.22266 0.011719 0.32812 0.03125 0.11328 0.011719 0.22656 0.039063 0.34375 0.078125z"/>
  </symbol>
 </defs>
 <g>
  <path d="m350 174.89c-68.602-113.25-212.55-61.84-189.54 61.246 22.336 119.51 189.54 211.87 189.54 211.87s167.2-92.359 189.54-211.86c23.016-123.09-120.93-174.5-189.54-61.25z"/>
  <use x="70" y="572" xlink:href="#w"/>
  <use x="72.9375" y="572" xlink:href="#b"/>
  <use x="74.90625" y="572" xlink:href="#a"/>
  <use x="77.621094" y="572" xlink:href="#d"/>
  <use x="80.320312" y="572" xlink:href="#c"/>
  <use x="82.234375" y="572" xlink:href="#a"/>
  <use x="84.945312" y="572" xlink:href="#l"/>
  <use x="89.203125" y="572" xlink:href="#k"/>
  <use x="92.0625" y="572" xlink:href="#j"/>
  <use x="96.0625" y="572" xlink:href="#g"/>
  <use x="99.164062" y="572" xlink:href="#d"/>
  <use x="101.863281" y="572" xlink:href="#c"/>
  <use x="103.773438" y="572" xlink:href="#d"/>
  <use x="106.476562" y="572" xlink:href="#b"/>
  <use x="108.445312" y="572" xlink:href="#v"/>
  <use x="109.820312" y="572" xlink:href="#f"/>
  <use x="112.664062" y="572" xlink:href="#d"/>
  <use x="116.757812" y="572" xlink:href="#g"/>
  <use x="119.859375" y="572" xlink:href="#u"/>
  <use x="122.554688" y="572" xlink:href="#b"/>
  <use x="124.53125" y="572" xlink:href="#f"/>
  <use x="127.375" y="572" xlink:href="#a"/>
  <use x="130.089844" y="572" xlink:href="#t"/>
  <use x="132.75" y="572" xlink:href="#i"/>
  <use x="135.597656" y="572" xlink:href="#h"/>
  <use x="136.96875" y="572" xlink:href="#h"/>
  <use x="70" y="576" xlink:href="#s"/>
  <use x="71.742188" y="576" xlink:href="#b"/>
  <use x="73.710938" y="576" xlink:href="#e"/>
  <use x="76.460938" y="576" xlink:href="#r"/>
  <use x="82.023438" y="576" xlink:href="#c"/>
  <use x="83.933594" y="576" xlink:href="#q"/>
  <use x="86.78125" y="576" xlink:href="#a"/>
  <use x="90.886719" y="576" xlink:href="#p"/>
  <use x="94.234375" y="576" xlink:href="#e"/>
  <use x="96.984375" y="576" xlink:href="#i"/>
  <use x="99.828125" y="576" xlink:href="#f"/>
  <use x="104.070312" y="576" xlink:href="#o"/>
  <use x="107" y="576" xlink:href="#b"/>
  <use x="108.976562" y="576" xlink:href="#e"/>
  <use x="111.722656" y="576" xlink:href="#n"/>
  <use x="113.09375" y="576" xlink:href="#a"/>
  <use x="115.804688" y="576" xlink:href="#m"/>
  <use x="118.179688" y="576" xlink:href="#c"/>
 </g>
</svg>
