<?xml version="1.0" encoding="utf-8"?>
<!-- Generator: Adobe Illustrator 25.0.0, SVG Export Plug-In . SVG Version: 6.00 Build 0)  -->
<svg version="1.1" id="Layer_1" xmlns="http://www.w3.org/2000/svg" xmlns:xlink="http://www.w3.org/1999/xlink" x="0px" y="0px"
	 viewBox="0 0 700 700" style="enable-background:new 0 0 700 700;" xml:space="preserve">
<style type="text/css">
	.st0{fill-rule:evenodd;clip-rule:evenodd;fill:#FFFFFF;}
</style>
<path class="st0" d="M345.2,144.8l-2.1,14.3c-1,3.8-1.7,6.5-2.1,8c-1.4,4.5-2.2,7.3-2.6,8.3c-2.8,7.3-4.8,12.7-6,16.3
	c-1.9,6.2-3.1,12.1-3.6,17.6c-0.3,1.4-0.5,2.8-0.5,4.1v4.4c0,3.1,0.3,5.7,0.8,7.8l0.8,2.3v0.5l0.8,0.3c0.7,0.7,2.2,1,4.7,1
	c3.3,0,8.5-0.3,15.6-1l14.3-0.5c18.7-0.7,28.1,0,28.3,2.1c0.3,1.9-8.6,4.6-27,8l-21.8,3.6c-3.6,0.7-6.7,1-9.1,1
	c-0.7,0.2-1.6,0.2-2.6,0l-4.1-0.3l-1.8-0.5c-0.7-0.2-1.8-0.6-3.4-1.3c-0.9-0.5-1.9-1.3-3.1-2.3c-1.4-1.2-2.2-2.2-2.6-3.1
	c-0.9-0.9-1.4-1.9-1.6-3.1c-0.9-1.2-1.3-2.2-1.3-3.1c-0.7-2.8-1.2-6.5-1.6-11.1c0-1,0.1-2.8,0.3-5.2c0-2.1,0.2-3.9,0.5-5.4
	c0.7-6.4,2.2-13.1,4.7-20.2c1.6-4.5,3.9-10.1,7-16.9c3.1-7.4,6.2-16.7,9.3-27.7c2.6-10.9,4.3-17.4,5.2-19.4c1.6-4.8,2.9-7.2,3.9-7
	c0.9,0,1.4,2.6,1.6,7.8C346.3,129.8,346,136.7,345.2,144.8L345.2,144.8z M350.4,127.2c-0.7-2.6-1.6-5.4-2.6-8.3
	c-0.7-1.7-1.6-3.5-2.6-5.2c-0.3-0.9-1.1-1.3-2.3-1.3c-0.9,0.2-2.2,0.7-3.9,1.6c-2.9,1.2-4.7,1.6-5.2,1.3c-0.9-0.9-0.4-2.7,1.3-5.4
	c1.2-2.2,2.8-3.9,4.7-4.9c1.7-0.7,3.4-1.1,4.9-1.3c1.9-0.2,3.9,0.3,6,1.6c2.8,1.6,5.4,4.2,7.8,8c1.9,3.1,3.5,6.5,4.7,10.1
	c2.4,6.2,4.4,13.7,6,22.6c2.2,13,3.4,25.9,3.4,38.9c2.6,1,5.2,1.8,7.8,2.3c2.9,0.5,8,0.8,15,0.8c4.7,0,8,0.1,9.9,0.3
	c4.1,0.3,8,1.3,11.7,2.9v0.3c5,2.1,8.6,4.3,10.9,6.7c3.3,2.9,6.1,6.6,8.6,10.9c1.6,2.8,3.6,6.7,6.2,11.9c2.6,4.1,5.3,7.2,8,9.1
	c0.9,0.5,2.9,1.5,6,2.9c1.6,0.5,3.6,0.9,6.2,1c3.8,0.5,8.8,0.3,15-0.5c3.8-0.3,9.3-1.2,16.6-2.6c8.1-1.2,14.1-2.1,17.9-2.6
	c8-1,14.6-1.5,20-1.3c4,0.2,7.7,1,11.1,2.3l6,2.9l2.8,2.6l2.6,3.1c1.7,3.6,2.5,8,2.3,13.2c-0.4,3.8-1,7.5-1.8,11.1
	c-1.4,6.2-3.5,13.1-6.5,20.7c-1.2,2.9-2.8,6.3-4.7,10.1c-2.1,4.1-4.2,7.5-6.2,10.1c-0.7,1-1.4,2-2.1,2.9l-7,6.2
	c-2.9,1.9-6.6,3.8-10.9,5.7c-5,2.4-12.1,5-21.3,7.8l-10.4,3.6c-2.4,0.9-5.7,2.2-9.9,4.1c-15.2,7.3-27.8,16.1-37.9,26.4
	c-0.5,1-0.9,1.8-1.3,2.3c-1.2,3.8-2,7.7-2.3,11.7c-0.2,3.6,0.2,7.6,1,11.9l1.3,5.2c0.4,0.9,1,2.3,1.8,4.4l0.3,1l2.6,5.7
	c0.9,1.9,1,3.2,0.5,3.9c-0.7,0.9-2.1,1-4.1,0.5c-1.4-0.5-2.6-1.2-3.6-2.1l-4.1-3.1c-2.2-2.4-3.6-4.1-4.1-4.9l-3.4-6.5
	c-0.9-2.2-1.4-4.5-1.6-6.7c-2.8,5.2-4.9,10.6-6.5,16.3c-2.6,9-3.5,18.3-2.9,28c0,6.7,0.3,16.6,0.8,29.6c0,5.4-0.1,10.2-0.3,14.5
	c-0.7,5.5-1.5,10.3-2.3,14.3c-2.1,8.5-5.6,16.9-10.6,25.4l-1.8,2.9l-13,16.9c-15.6,17.8-34.1,33.3-55.7,46.4
	c-3.1,1.9-6.2,3.8-9.3,5.7c-5,3.3-10.4,6.4-16.1,9.3l-8.3,4.1c-0.9-1.2-1.6-2.2-2.1-3.1c-1.9-2.6-5.1-7.2-9.6-13.7
	c-4.5-6.6-8.9-13.1-13.2-19.7c-8.1-12.4-14.7-22.3-19.7-29.6l-24.1-36.6c-5.7-8.6-10.1-15.3-13.2-20c-2.2-4-6.7-11.1-13.2-21.5
	c-6.7-9.9-11.8-17.4-15-22.6c-5.9-8.8-10.9-16.9-15-24.1c-1.4-2.6-2.7-5.2-3.9-7.8c0.3,2.6,0.5,4.4,0.5,5.4c0.7,8,0.2,12.3-1.6,13
	c-2.1,0.7-4.9-2.6-8.6-9.9c-3.8-8.3-6.7-17.8-8.6-28.5c-0.5-4.3-0.8-8.3-0.8-11.9c-0.3,1-0.6,2.1-0.8,3.1
	c-1.6,8.8-2.4,14.8-2.6,17.9c-0.3,3.5-0.6,7.6-0.8,12.4c-0.3,3.1-0.9,4.8-1.6,4.9c-0.9,0.3-2.2-0.9-3.9-3.9l-1.3-2.6l-2.1-6.5
	c0-0.2-0.3-1.5-0.8-3.9c-0.9-5.5-1-12.4-0.3-20.5c0.9-7.4,2.7-15.3,5.4-23.6c2.9-7.8,6.4-15.2,10.4-22.3c4.5-6.9,8.6-12.2,12.2-15.8
	c1.6-1.6,3.1-3,4.7-4.4c2.8-3.8,6-7.5,9.8-11.1c6.2-6.1,13.6-12.4,22-18.9c3.6-2.6,11-7.8,22-15.6c9.9-7.1,16.6-12.1,20.2-15
	c5.5-4.7,11.3-9.9,17.4-15.8c9.2-9,18.2-19.8,27.2-32.4c5.7-8.3,11.9-18.2,18.7-29.8l13.2-23.3c7.6-13.5,11.8-20,12.4-19.4
	c1,0.3-1.4,7.6-7.3,21.8c-3.3,8.3-7,16.6-11.1,24.9c-5.9,12.3-11.7,22.9-17.4,31.9c-8.3,13-17.4,24.6-27.2,35
	c-5.9,6.4-11.7,12.1-17.6,17.1c-4.3,3.6-11.2,9-20.7,16.1c-12.8,9.5-19.9,14.8-21.3,15.8c-8.3,6.2-15.1,12.2-20.5,17.9
	c-7.3,7.4-12.6,14.5-16.1,21.3c-2.1,4-3.6,8-4.4,12.2c-0.9,4.5-1.2,8.9-1,13.2c0.2,0.5,0.3,1.6,0.5,3.1l1.8,10.1c1,4,1.6,6.3,1.8,7
	c0.7,1.4,1.5,3.5,2.3,6.5c2.6,7.1,6.6,15.6,11.9,25.4c3.8,6.9,8.5,14.8,14,23.6c3.3,5.2,8,12.8,14.3,22.8L259,525
	c2.2,3.5,8.3,13.7,18.1,30.6l13,23.9c2.6,4.7,4.9,7.9,7,9.9l12.4-6.2l16.1-10.9c0.3-0.3,2.1-1.6,5.2-3.9l5.7-4.4
	c0.9-0.7,2.9-2.4,6.2-5.2l6.5-5.4c11.9-11.1,21.1-20.7,27.5-29l12.7-18.7c4.3-7.8,7.2-15.3,8.6-22.6c1.6-6.7,2.1-15.4,1.6-25.9
	c-0.7-12.4-1.1-22-1.3-28.8c-0.9-10.9,0.1-21.8,2.9-32.7c2.9-11.2,7.7-21.6,14.3-31.1c12.6-18.1,30.8-32.9,54.4-44.3
	c4.1-1.9,7.8-3.5,10.9-4.7c3.3-1,6.9-2.2,10.9-3.6c9.3-2.8,16.1-5.1,20.2-7c3.6-1.7,6.3-3.3,8-4.7c0.3-0.2,1-0.5,2.1-1l4.1-4.7
	c1.6-2.1,3.2-4.8,4.9-8l4.1-9.1c2.6-5.9,4.7-11.9,6.2-18.1c1-3.8,1.6-6.7,1.6-8.8c0.2-1.4,0.2-2.7,0-3.9c0-1-0.3-1.8-0.8-2.3v-0.3
	h-0.3l-0.5-0.8l-1.6-1l-1.6-0.5c-1.9-0.9-4.4-1.4-7.5-1.6c-4.1-0.3-9.9-0.2-17.4,0.5c-3.3,0.3-9.2,1.1-17.6,2.3
	c-7.4,1-13.2,1.7-17.4,2.1c-6.9,0.5-12.7,0.5-17.4,0c-0.9-0.2-2.3-0.4-4.4-0.8c-1.7-0.3-3.2-0.9-4.4-1.6c-3.5-1.2-6-2.6-7.8-4.1
	c-4.3-2.9-8-7.2-10.9-12.7c-2.6-5.9-4.5-10-5.7-12.4c-1.9-4-4-7.1-6.2-9.3c-1.6-1.7-4.3-3.6-8.3-5.7l-0.3-0.3
	c-2.6-1.4-5.3-2.3-8-2.9c-2.9-0.3-8-0.4-15-0.3c-7.1,0-12.9-0.5-17.4-1.6c-4.5-1.2-7.9-2.5-10.4-3.9c-2.2-9.5-4.9-23.2-8-41.2
	C353.1,139.5,351.7,132.5,350.4,127.2L350.4,127.2z M385.4,342.6c-3.1,1.7-5.5,3.1-7.3,4.1l-13.7,9.9c-9.2,8.1-16.8,16.4-22.8,24.9
	c-6.9,10.2-12.1,19.5-15.6,28c-6.7,15.6-11.9,33.2-15.6,52.9c-1.7,9-3.5,21.4-5.4,37.3c-1.2,9.2-2.2,13.7-3.1,13.7
	c-1.2,0-2.2-4.7-2.9-14c-0.7-11.2-0.3-24.1,1.3-38.6c1.9-20.2,6.3-39.1,13.2-56.5c3.6-9.9,9-20.1,16.1-30.8
	c6.6-9.9,15-19.3,25.1-28.3l15.8-10.9c5.2-2.9,8-4.5,8.3-4.7l8.3-3.9c8.8-3.5,19.7-6.9,32.7-10.4c4-0.9,13.8-3.2,29.6-7
	c10.9-2.6,19.3-4.8,25.1-6.5c11.8-3.3,23.2-7.9,34.5-13.7c8.1-4.3,12.4-6.4,12.7-6.2c0.3,0.5-0.3,1.7-1.8,3.6
	c-2.2,2.6-4.8,5-7.8,7.3c-8.8,7.3-20.2,13.6-34.2,18.9c-6.4,2.4-14.9,5.2-25.4,8.3c-12.6,3.6-22.2,6.4-28.8,8.3
	c-12.6,3.8-22.9,7.3-30.9,10.6L385.4,342.6z"/>
</svg>
