<?xml version="1.0" encoding="utf-8"?>
<!-- Generator: Adobe Illustrator 25.0.0, SVG Export Plug-In . SVG Version: 6.00 Build 0)  -->
<svg version="1.1" id="Layer_1" xmlns="http://www.w3.org/2000/svg" xmlns:xlink="http://www.w3.org/1999/xlink" x="0px" y="0px"
	 viewBox="0 0 700 700" style="enable-background:new 0 0 700 700;" xml:space="preserve">
<style type="text/css">
	.st0{fill-rule:evenodd;clip-rule:evenodd;}
</style>
<path class="st0" d="M350,324.7c69.8,1.1,137.4,62,170,138.6c19.9,46.8,15.7,89.9,0.7,117.8c-14.9,27.7-61.4,24.9-92.3,1.5
	c-23.6-17.9-50.1-31-78.4-32.5c-28.3,1.5-54.8,14.6-78.4,32.5c-30.9,23.5-77.4,26.2-92.3-1.5c-15-27.9-19.2-71,0.7-117.8
	C212.6,386.7,280.2,325.8,350,324.7L350,324.7z M99.3,237.3C69,252.1,60.9,299.2,81.1,342.6c20.2,43.4,61.1,66.8,91.4,52
	c30.3-14.7,38.5-61.9,18.3-105.3C170.5,246,129.6,222.7,99.3,237.3L99.3,237.3z M247.1,83.6c40-5.8,78.8,35.3,86.7,91.8
	c7.8,56.6-18.2,107.1-58.2,113c-40,5.8-78.8-35.3-86.7-91.8C181,140,207.1,89.4,247.1,83.6L247.1,83.6z M600.7,237.3
	c-30.3-14.7-71.2,8.6-91.4,52c-20.2,43.5-12,90.6,18.3,105.3c30.3,14.7,71.2-8.6,91.4-52C639.1,299.2,631,252.1,600.7,237.3
	L600.7,237.3z M452.9,83.6c40,5.8,66.1,56.4,58.2,113c-7.8,56.6-46.6,97.7-86.7,91.8c-40-5.8-66.1-56.4-58.2-113
	C374.1,118.8,412.9,77.7,452.9,83.6z"/>
</svg>
